<?xml version="1.0" standalone="no"?>
<!DOCTYPE svg PUBLIC "-//W3C//DTD SVG 20010904//EN"
 "http://www.w3.org/TR/2001/REC-SVG-20010904/DTD/svg10.dtd">
<svg version="1.0" xmlns="http://www.w3.org/2000/svg"
 width="500.000000pt" height="500.000000pt" viewBox="0 0 500.000000 500.000000"
 preserveAspectRatio="xMidYMid meet">
<metadata>
Created by potrace 1.14, written by Peter Selinger 2001-2017
</metadata>
<g transform="translate(0.000000,500.000000) scale(0.100000,-0.100000)"
fill="#000000" stroke="none">
<path d="M2210 4894 c-175 -16 -468 -86 -624 -149 -339 -137 -591 -361 -700
-624 -72 -173 -95 -395 -62 -606 54 -345 232 -559 631 -758 120 -60 231 -107
252 -107 8 0 12 -4 9 -9 -3 -5 5 -8 18 -8 21 0 148 -38 170 -51 18 -10 66 -7
66 4 0 7 21 29 47 50 26 22 55 46 63 54 9 8 42 38 75 65 32 28 66 57 74 65 14
13 181 157 271 233 91 77 171 147 210 183 25 23 56 51 69 62 l24 19 -34 12
c-19 7 -54 18 -79 25 -270 77 -579 176 -723 232 -186 73 -253 118 -292 198
-24 50 -27 64 -24 143 3 74 9 98 34 147 53 105 184 204 340 258 246 84 537 90
805 16 41 -11 84 -25 95 -31 20 -11 26 -13 45 -16 5 0 8 -7 6 -13 -1 -7 -1
-10 1 -5 7 11 43 9 43 -3 0 -5 9 -10 20 -10 11 0 23 -6 26 -14 3 -8 12 -12 20
-9 8 3 14 0 14 -7 0 -6 4 -8 10 -5 13 8 52 -19 42 -30 -4 -5 -2 -5 5 -1 15 8
50 -9 139 -70 86 -58 147 -106 200 -156 l40 -38 75 54 c135 100 153 113 227
162 85 57 81 27 32 254 -16 74 -43 207 -60 295 -18 88 -36 164 -40 168 -4 5
-32 -7 -61 -26 -106 -68 -139 -79 -229 -84 -86 -5 -216 16 -425 68 -192 48
-311 61 -560 64 -132 1 -260 1 -285 -1z"/>
<path d="M263 4725 c0 -44 2 -61 4 -37 2 23 2 59 0 80 -2 20 -4 1 -4 -43z"/>
<path d="M343 4720 c0 -25 2 -35 4 -22 2 12 2 32 0 45 -2 12 -4 2 -4 -23z"/>
<path d="M261 4614 c0 -11 3 -14 6 -6 3 7 2 16 -1 19 -3 4 -6 -2 -5 -13z"/>
<path d="M261 4574 c0 -11 3 -14 6 -6 3 7 2 16 -1 19 -3 4 -6 -2 -5 -13z"/>
<path d="M263 4505 c0 -22 2 -30 4 -17 2 12 2 30 0 40 -3 9 -5 -1 -4 -23z"/>
<path d="M4511 4370 c-68 -33 -124 -60 -126 -60 -4 0 -236 -130 -319 -179
-160 -96 -377 -252 -556 -400 -131 -108 -450 -382 -595 -511 -115 -102 -622
-538 -669 -576 -28 -22 -80 -68 -116 -102 -36 -34 -71 -62 -77 -62 -7 0 -13
-4 -13 -10 0 -10 -50 -60 -60 -60 -4 0 -28 -20 -54 -45 -27 -25 -62 -55 -78
-67 -16 -13 -44 -36 -61 -53 -17 -16 -33 -30 -36 -30 -3 -1 -20 -14 -38 -30
l-32 -28 26 -31 c26 -31 110 -123 187 -205 36 -39 38 -43 16 -36 -50 14 -112
70 -224 201 -16 19 -34 34 -41 34 -6 0 -34 -20 -61 -43 -65 -58 -225 -197
-255 -222 -13 -11 -71 -61 -128 -110 -58 -50 -123 -106 -145 -125 -74 -63
-509 -443 -526 -459 -9 -9 -91 -83 -182 -164 -92 -82 -178 -167 -193 -189 -28
-42 -58 -155 -45 -173 3 -5 12 -28 18 -50 12 -43 56 -94 104 -122 15 -10 29
-26 29 -38 1 -17 2 -17 6 -2 3 13 10 16 26 11 88 -28 185 -31 272 -9 84 22
105 45 105 113 0 77 43 163 121 241 34 33 65 61 69 61 4 0 10 -10 13 -23 3
-12 38 -159 77 -327 40 -168 75 -308 79 -312 3 -4 35 11 70 33 111 70 152 82
261 76 52 -3 115 -10 140 -16 25 -6 191 -47 370 -90 179 -44 348 -83 375 -86
28 -4 61 -9 75 -11 40 -7 361 -6 441 1 90 8 297 42 311 51 7 4 8 2 4 -4 -4 -7
-3 -12 3 -12 5 0 13 4 16 10 6 9 83 35 130 43 11 2 33 9 48 15 16 7 32 12 36
12 11 0 244 101 307 133 28 14 54 23 58 20 3 -4 6 -1 6 5 0 7 14 21 32 32 24
15 34 16 40 7 5 -8 8 -7 8 5 0 21 20 28 45 15 18 -9 19 -9 6 7 -12 14 -12 18
5 31 19 14 31 19 47 16 4 0 7 3 7 7 0 4 35 36 78 71 42 36 113 101 157 145 44
45 84 80 88 78 5 -1 6 2 2 8 -4 6 11 30 32 53 145 157 257 405 310 684 26 137
23 407 -6 547 -12 60 -27 118 -32 129 -6 10 -8 21 -5 24 3 3 -1 18 -10 34 -8
16 -14 30 -13 31 1 2 -8 23 -20 46 -12 24 -20 50 -17 58 3 8 2 12 -4 9 -14 -9
-40 49 -34 76 4 17 3 20 -4 10 -8 -11 -13 -8 -28 15 -21 35 -128 169 -164 205
-82 85 -272 220 -307 218 -10 0 -49 -37 -87 -82 -144 -171 -268 -305 -508
-550 -60 -61 -108 -113 -108 -117 0 -4 28 -19 62 -34 109 -47 251 -138 308
-195 171 -174 210 -504 88 -746 -97 -190 -272 -342 -522 -451 -128 -57 -176
-70 -187 -52 -7 10 -9 9 -9 -4 0 -10 -3 -18 -7 -18 -5 0 -39 -7 -76 -15 -185
-39 -462 -43 -650 -10 -235 41 -465 145 -682 306 -95 70 -245 205 -245 219 0
5 26 39 58 77 32 37 105 130 162 206 122 163 235 274 323 316 65 32 199 58
243 47 19 -5 24 -2 24 12 0 12 11 21 32 27 18 6 38 20 44 33 14 28 43 51 67
52 9 0 17 7 17 15 0 8 5 15 10 15 20 0 109 75 109 93 1 11 11 20 31 23 16 4
36 17 45 30 9 14 21 21 30 18 9 -4 15 0 15 10 0 9 4 16 9 16 5 0 14 14 21 30
7 17 20 30 30 30 10 0 20 6 23 14 3 8 22 20 41 27 21 8 36 20 36 29 0 9 14 24
30 33 17 10 30 22 30 28 0 5 13 9 30 9 23 0 28 4 23 16 -5 14 38 64 64 76 31
13 102 76 103 91 0 11 11 20 31 24 19 3 35 15 41 29 6 13 17 24 25 24 23 0 63
31 63 50 0 10 7 21 16 24 8 3 13 10 10 15 -3 5 13 15 36 23 26 8 47 22 52 34
6 12 22 29 38 39 15 9 28 20 28 26 0 5 13 9 30 9 23 0 28 4 23 16 -5 14 46 73
65 74 12 1 62 49 62 60 0 5 9 10 20 10 11 0 38 18 60 40 22 22 44 40 49 40 5
0 11 9 14 20 3 11 9 20 14 19 22 -4 34 3 43 26 5 14 16 25 25 25 17 0 21 16 5
22 -6 2 12 12 40 23 30 12 50 26 50 35 0 9 14 24 30 33 17 10 30 22 30 28 0 5
10 9 22 9 14 0 42 22 77 59 31 33 65 61 76 63 19 3 82 61 111 103 12 16 16 17
23 6 5 -7 14 -10 21 -6 9 6 10 9 0 15 -14 9 -4 50 12 50 5 0 8 -7 5 -14 -4
-10 -1 -13 9 -9 7 3 14 10 14 17 0 6 10 22 23 36 32 35 171 253 250 391 60
104 197 378 197 393 0 14 -32 2 -149 -54z m-3106 -2700 c22 -24 13 -66 -16
-75 -54 -17 -94 24 -68 71 16 30 59 32 84 4z m-497 -426 c24 -17 30 -62 10
-82 -7 -7 -24 -12 -38 -12 -33 0 -50 17 -50 51 0 24 30 59 50 59 3 0 16 -7 28
-16z m-471 -453 c17 -22 16 -41 -4 -63 -23 -26 -59 -23 -79 7 -38 58 40 111
83 56z"/>
<path d="M98 4403 c6 -2 18 -2 25 0 6 3 1 5 -13 5 -14 0 -19 -2 -12 -5z"/>
<path d="M521 4314 c0 -11 3 -14 6 -6 3 7 2 16 -1 19 -3 4 -6 -2 -5 -13z"/>
<path d="M3931 4314 c0 -11 3 -14 6 -6 3 7 2 16 -1 19 -3 4 -6 -2 -5 -13z"/>
<path d="M3961 4314 c0 -11 3 -14 6 -6 3 7 2 16 -1 19 -3 4 -6 -2 -5 -13z"/>
<path d="M2706 4291 c-10 -11 -16 -26 -13 -33 4 -10 6 -10 6 1 1 8 8 23 18 33
9 10 14 18 11 18 -3 0 -13 -9 -22 -19z"/>
<path d="M2402 4280 c0 -14 2 -19 5 -12 2 6 2 18 0 25 -3 6 -5 1 -5 -13z"/>
<path d="M2500 4280 c0 -6 7 -10 15 -10 8 0 15 2 15 4 0 2 -7 6 -15 10 -8 3
-15 1 -15 -4z"/>
<path d="M208 4273 c7 -3 16 -2 19 1 4 3 -2 6 -13 5 -11 0 -14 -3 -6 -6z"/>
<path d="M360 4270 c0 -5 5 -10 11 -10 5 0 7 5 4 10 -3 6 -8 10 -11 10 -2 0
-4 -4 -4 -10z"/>
<path d="M2857 4273 c-13 -12 -7 -23 11 -22 10 0 12 3 4 6 -6 2 -10 9 -6 14 6
10 0 12 -9 2z"/>
<path d="M2887 4264 c6 -15 23 -19 23 -5 0 5 -7 11 -14 14 -10 4 -13 1 -9 -9z"/>
<path d="M2925 4270 c3 -5 8 -10 11 -10 2 0 4 5 4 10 0 6 -5 10 -11 10 -5 0
-7 -4 -4 -10z"/>
<path d="M3002 4250 c0 -19 2 -27 5 -17 2 9 2 25 0 35 -3 9 -5 1 -5 -18z"/>
<path d="M21 4254 c0 -11 3 -14 6 -6 3 7 2 16 -1 19 -3 4 -6 -2 -5 -13z"/>
<path d="M320 4259 c0 -5 5 -7 10 -4 6 3 10 8 10 11 0 2 -4 4 -10 4 -5 0 -10
-5 -10 -11z"/>
<path d="M2551 4265 c0 -5 3 -16 8 -23 7 -11 9 -10 14 3 4 9 3 14 -2 10 -5 -3
-12 1 -14 7 -3 7 -6 9 -6 3z"/>
<path d="M2758 4263 c7 -3 16 -2 19 1 4 3 -2 6 -13 5 -11 0 -14 -3 -6 -6z"/>
<path d="M2 4240 c0 -14 2 -19 5 -12 2 6 2 18 0 25 -3 6 -5 1 -5 -13z"/>
<path d="M2481 4244 c0 -11 3 -14 6 -6 3 7 2 16 -1 19 -3 4 -6 -2 -5 -13z"/>
<path d="M2812 4240 c0 -14 2 -19 5 -12 2 6 2 18 0 25 -3 6 -5 1 -5 -13z"/>
<path d="M2754 4243 c15 -4 16 -7 5 -15 -12 -8 -12 -9 0 -6 25 7 24 28 -1 27
-19 -1 -20 -2 -4 -6z"/>
<path d="M378 4233 c6 -2 18 -2 25 0 6 3 1 5 -13 5 -14 0 -19 -2 -12 -5z"/>
<path d="M2585 4229 c-4 -6 -5 -12 -2 -15 2 -3 7 2 10 11 7 17 1 20 -8 4z"/>
<path d="M2845 4230 c4 -6 11 -8 16 -5 14 9 11 15 -7 15 -8 0 -12 -5 -9 -10z"/>
<path d="M2893 4233 c9 -2 23 -2 30 0 6 3 -1 5 -18 5 -16 0 -22 -2 -12 -5z"/>
<path d="M3080 4221 c0 -6 4 -13 10 -16 6 -3 7 1 4 9 -7 18 -14 21 -14 7z"/>
<path d="M395 4210 c-3 -6 1 -7 9 -4 18 7 21 14 7 14 -6 0 -13 -4 -16 -10z"/>
<path d="M204 4188 c12 -7 25 -7 40 0 18 8 15 10 -18 10 -32 0 -36 -2 -22 -10z"/>
<path d="M2418 4193 c12 -2 32 -2 45 0 12 2 2 4 -23 4 -25 0 -35 -2 -22 -4z"/>
<path d="M4117 3523 c-4 -3 -7 -11 -7 -17 0 -6 5 -5 12 2 6 6 9 14 7 17 -3 3
-9 2 -12 -2z"/>
<path d="M4050 3430 c0 -19 3 -21 12 -12 9 9 9 15 0 24 -9 9 -12 7 -12 -12z"/>
<path d="M4010 3410 c0 -5 5 -10 10 -10 6 0 10 5 10 10 0 6 -4 10 -10 10 -5 0
-10 -4 -10 -10z"/>
<path d="M3917 3250 c-3 -11 -1 -20 4 -20 5 0 9 9 9 20 0 11 -2 20 -4 20 -2 0
-6 -9 -9 -20z"/>
<path d="M3886 3217 c3 -10 9 -15 12 -12 3 3 0 11 -7 18 -10 9 -11 8 -5 -6z"/>
<path d="M3844 3185 c-9 -21 -2 -26 13 -10 8 9 9 16 3 20 -6 3 -13 -1 -16 -10z"/>
<path d="M3718 3073 c7 -3 16 -2 19 1 4 3 -2 6 -13 5 -11 0 -14 -3 -6 -6z"/>
<path d="M3602 2879 c2 -6 8 -10 13 -10 5 0 11 4 13 10 2 6 -4 11 -13 11 -9 0
-15 -5 -13 -11z"/>
<path d="M3520 2795 c0 -8 7 -15 15 -15 8 0 15 4 15 9 0 5 -7 11 -15 15 -9 3
-15 0 -15 -9z"/>
<path d="M938 2783 c7 -3 16 -2 19 1 4 3 -2 6 -13 5 -11 0 -14 -3 -6 -6z"/>
<path d="M4150 2776 c0 -2 8 -10 18 -17 15 -13 16 -12 3 4 -13 16 -21 21 -21
13z"/>
<path d="M4542 2695 c0 -16 2 -22 5 -12 2 9 2 23 0 30 -3 6 -5 -1 -5 -18z"/>
<path d="M928 2703 c6 -2 18 -2 25 0 6 3 1 5 -13 5 -14 0 -19 -2 -12 -5z"/>
<path d="M1132 2680 c0 -19 2 -27 5 -17 2 9 2 25 0 35 -3 9 -5 1 -5 -18z"/>
<path d="M3440 2688 c0 -19 2 -20 10 -8 13 19 13 30 0 30 -5 0 -10 -10 -10
-22z"/>
<path d="M4358 2703 c7 -3 16 -2 19 1 4 3 -2 6 -13 5 -11 0 -14 -3 -6 -6z"/>
<path d="M792 2670 c0 -14 2 -19 5 -12 2 6 2 18 0 25 -3 6 -5 1 -5 -13z"/>
<path d="M3390 2640 c0 -5 5 -10 10 -10 6 0 10 5 10 10 0 6 -4 10 -10 10 -5 0
-10 -4 -10 -10z"/>
<path d="M4461 2614 c0 -11 3 -14 6 -6 3 7 2 16 -1 19 -3 4 -6 -2 -5 -13z"/>
<path d="M3360 2610 c0 -5 5 -10 10 -10 6 0 10 5 10 10 0 6 -4 10 -10 10 -5 0
-10 -4 -10 -10z"/>
<path d="M4543 2515 c0 -27 2 -38 4 -22 2 15 2 37 0 50 -2 12 -4 0 -4 -28z"/>
<path d="M1133 2510 c0 -25 2 -35 4 -22 2 12 2 32 0 45 -2 12 -4 2 -4 -23z"/>
<path d="M1652 2515 c0 -16 2 -22 5 -12 2 9 2 23 0 30 -3 6 -5 -1 -5 -18z"/>
<path d="M1401 2504 c0 -11 3 -14 6 -6 3 7 2 16 -1 19 -3 4 -6 -2 -5 -13z"/>
<path d="M1963 2470 c0 -30 2 -43 4 -27 2 15 2 39 0 55 -2 15 -4 2 -4 -28z"/>
<path d="M4732 2500 c0 -14 2 -19 5 -12 2 6 2 18 0 25 -3 6 -5 1 -5 -13z"/>
<path d="M3202 2463 c2 -13 -6 -29 -20 -42 -13 -11 -22 -25 -20 -30 1 -6 17 5
34 23 28 29 30 34 17 52 -14 18 -15 18 -11 -3z"/>
<path d="M3240 2469 c0 -5 5 -7 10 -4 6 3 10 8 10 11 0 2 -4 4 -10 4 -5 0 -10
-5 -10 -11z"/>
<path d="M3116 2357 c-7 -29 -3 -31 18 -8 14 16 15 19 2 24 -9 4 -16 -2 -20
-16z"/>
<path d="M3080 2309 c0 -5 5 -7 10 -4 6 3 10 8 10 11 0 2 -4 4 -10 4 -5 0 -10
-5 -10 -11z"/>
<path d="M710 2265 c0 -8 4 -15 10 -15 5 0 7 7 4 15 -4 8 -8 15 -10 15 -2 0
-4 -7 -4 -15z"/>
<path d="M4951 2254 c0 -11 3 -14 6 -6 3 7 2 16 -1 19 -3 4 -6 -2 -5 -13z"/>
<path d="M790 2240 c0 -13 18 -22 24 -11 3 5 -1 11 -9 15 -8 3 -15 1 -15 -4z"/>
<path d="M1542 2230 c0 -14 2 -19 5 -12 2 6 2 18 0 25 -3 6 -5 1 -5 -13z"/>
<path d="M691 2224 c0 -11 3 -14 6 -6 3 7 2 16 -1 19 -3 4 -6 -2 -5 -13z"/>
<path d="M981 2224 c0 -11 3 -14 6 -6 3 7 2 16 -1 19 -3 4 -6 -2 -5 -13z"/>
<path d="M1145 2229 c-11 -16 -1 -19 13 -3 7 8 8 14 3 14 -5 0 -13 -5 -16 -11z"/>
<path d="M1216 2233 c7 -4 14 -19 17 -33 4 -22 5 -21 4 4 -1 17 -9 31 -17 33
-10 3 -11 2 -4 -4z"/>
<path d="M1313 2205 c0 -22 2 -30 4 -17 2 12 2 30 0 40 -3 9 -5 -1 -4 -23z"/>
<path d="M1604 2226 c-3 -8 -4 -23 -2 -33 3 -11 6 -6 9 15 6 34 2 42 -7 18z"/>
<path d="M4722 2220 c0 -14 2 -19 5 -12 2 6 2 18 0 25 -3 6 -5 1 -5 -13z"/>
<path d="M4761 2224 c0 -11 3 -14 6 -6 3 7 2 16 -1 19 -3 4 -6 -2 -5 -13z"/>
<path d="M1028 2223 c7 -3 16 -2 19 1 4 3 -2 6 -13 5 -11 0 -14 -3 -6 -6z"/>
<path d="M4545 2220 c-3 -5 1 -10 10 -10 9 0 13 5 10 10 -3 6 -8 10 -10 10 -2
0 -7 -4 -10 -10z"/>
<path d="M1055 2200 c3 -5 8 -10 11 -10 2 0 4 5 4 10 0 6 -5 10 -11 10 -5 0
-7 -4 -4 -10z"/>
<path d="M1101 2194 c0 -11 3 -14 6 -6 3 7 2 16 -1 19 -3 4 -6 -2 -5 -13z"/>
<path d="M1380 2200 c0 -5 5 -10 11 -10 5 0 7 5 4 10 -3 6 -8 10 -11 10 -2 0
-4 -4 -4 -10z"/>
<path d="M4510 2198 c0 -9 5 -20 10 -23 13 -8 13 5 0 25 -8 13 -10 13 -10 -2z"/>
<path d="M1138 2193 c7 -3 16 -2 19 1 4 3 -2 6 -13 5 -11 0 -14 -3 -6 -6z"/>
<path d="M1183 2193 c9 -2 23 -2 30 0 6 3 -1 5 -18 5 -16 0 -22 -2 -12 -5z"/>
<path d="M1541 2184 c0 -11 3 -14 6 -6 3 7 2 16 -1 19 -3 4 -6 -2 -5 -13z"/>
<path d="M1641 2184 c0 -11 3 -14 6 -6 3 7 2 16 -1 19 -3 4 -6 -2 -5 -13z"/>
<path d="M4550 2190 c0 -5 7 -7 15 -4 8 4 15 8 15 10 0 2 -7 4 -15 4 -8 0 -15
-4 -15 -10z"/>
<path d="M4598 2193 c7 -3 16 -2 19 1 4 3 -2 6 -13 5 -11 0 -14 -3 -6 -6z"/>
<path d="M1018 2173 c7 -3 16 -2 19 1 4 3 -2 6 -13 5 -11 0 -14 -3 -6 -6z"/>
<path d="M1371 2164 c0 -11 3 -14 6 -6 3 7 2 16 -1 19 -3 4 -6 -2 -5 -13z"/>
<path d="M2910 2165 c-20 -24 -5 -28 21 -6 19 16 20 20 8 21 -9 0 -22 -7 -29
-15z"/>
<path d="M690 2033 c-47 -14 -88 -30 -92 -36 -3 -6 -2 -20 3 -31 5 -12 31
-115 58 -230 26 -116 52 -211 57 -213 5 -2 23 9 40 24 17 16 61 54 98 86 63
55 77 81 57 102 -10 11 -67 156 -97 245 -27 82 -26 82 -124 53z"/>
<path d="M2796 2043 c-6 -14 -5 -15 5 -6 7 7 10 15 7 18 -3 3 -9 -2 -12 -12z"/>
<path d="M2675 1940 c-3 -5 -1 -10 4 -10 6 0 11 5 11 10 0 6 -2 10 -4 10 -3 0
-8 -4 -11 -10z"/>
<path d="M2640 1910 c0 -5 5 -10 10 -10 6 0 10 5 10 10 0 6 -4 10 -10 10 -5 0
-10 -4 -10 -10z"/>
<path d="M2575 1860 c3 -5 8 -10 11 -10 2 0 4 5 4 10 0 6 -5 10 -11 10 -5 0
-7 -4 -4 -10z"/>
<path d="M2506 1784 c-9 -8 -20 -13 -26 -9 -6 3 -7 -1 -4 -10 6 -14 10 -13 30
6 13 12 24 24 24 26 0 7 -9 2 -24 -13z"/>
<path d="M2145 1780 c3 -5 8 -10 11 -10 2 0 4 5 4 10 0 6 -5 10 -11 10 -5 0
-7 -4 -4 -10z"/>
<path d="M2190 1760 c0 -5 7 -10 16 -10 8 0 12 5 9 10 -3 6 -10 10 -16 10 -5
0 -9 -4 -9 -10z"/>
<path d="M2400 1766 c0 -2 7 -6 15 -10 8 -3 15 -1 15 4 0 6 -7 10 -15 10 -8 0
-15 -2 -15 -4z"/>
<path d="M2440 1735 c0 -8 5 -15 10 -15 6 0 10 7 10 15 0 8 -4 15 -10 15 -5 0
-10 -7 -10 -15z"/>
<path d="M2400 1716 c0 -9 5 -16 10 -16 6 0 10 4 10 9 0 6 -4 13 -10 16 -5 3
-10 -1 -10 -9z"/>
<path d="M2370 1706 c0 -9 5 -16 10 -16 6 0 10 4 10 9 0 6 -4 13 -10 16 -5 3
-10 -1 -10 -9z"/>
<path d="M2335 1680 c3 -5 16 -10 28 -10 18 0 19 2 7 10 -20 13 -43 13 -35 0z"/>
<path d="M2648 693 c7 -3 16 -2 19 1 4 3 -2 6 -13 5 -11 0 -14 -3 -6 -6z"/>
<path d="M32 500 c0 -14 2 -19 5 -12 2 6 2 18 0 25 -3 6 -5 1 -5 -13z"/>
<path d="M521 254 c0 -11 3 -14 6 -6 3 7 2 16 -1 19 -3 4 -6 -2 -5 -13z"/>
<path d="M3931 254 c0 -11 3 -14 6 -6 3 7 2 16 -1 19 -3 4 -6 -2 -5 -13z"/>
<path d="M171 214 c0 -11 3 -14 6 -6 3 7 2 16 -1 19 -3 4 -6 -2 -5 -13z"/>
<path d="M3702 222 c-9 -6 -10 -15 -2 -33 8 -19 9 -20 8 -4 -2 11 1 26 5 33 9
14 7 15 -11 4z"/>
<path d="M325 210 c-3 -5 -2 -10 4 -10 5 0 13 5 16 10 3 6 2 10 -4 10 -5 0
-13 -4 -16 -10z"/>
<path d="M403 205 c0 -8 4 -12 9 -9 5 3 6 10 3 15 -9 13 -12 11 -12 -6z"/>
<path d="M440 210 c0 -5 7 -10 16 -10 8 0 12 5 9 10 -3 6 -10 10 -16 10 -5 0
-9 -4 -9 -10z"/>
<path d="M3373 205 c-3 -9 -3 -19 1 -22 3 -4 6 1 6 10 0 8 6 18 13 20 9 4 9 6
-1 6 -7 1 -15 -6 -19 -14z"/>
<path d="M3430 207 c0 -9 6 -17 13 -17 8 0 7 -3 -3 -10 -8 -5 -12 -12 -9 -15
4 -3 11 0 17 7 7 9 6 19 -4 32 -12 17 -14 18 -14 3z"/>
<path d="M3479 203 c-12 -16 -12 -17 1 -7 8 6 22 14 30 17 13 5 12 6 -1 6 -9
1 -23 -7 -30 -16z"/>
<path d="M3561 204 c0 -11 3 -14 6 -6 3 7 2 16 -1 19 -3 4 -6 -2 -5 -13z"/>
<path d="M3741 211 c-8 -5 -9 -11 -3 -15 5 -3 12 1 16 9 6 17 6 18 -13 6z"/>
<path d="M3810 210 c0 -5 5 -10 11 -10 5 0 7 5 4 10 -3 6 -8 10 -11 10 -2 0
-4 -4 -4 -10z"/>
<path d="M30 200 c-9 -6 -10 -10 -3 -10 6 0 15 5 18 10 8 12 4 12 -15 0z"/>
<path d="M121 194 c0 -11 3 -14 6 -6 3 7 2 16 -1 19 -3 4 -6 -2 -5 -13z"/>
<path d="M3603 195 c-3 -9 -3 -18 -1 -21 3 -3 8 4 11 16 6 23 -1 27 -10 5z"/>
<path d="M285 189 c-4 -6 -5 -12 -2 -15 2 -3 7 2 10 11 7 17 1 20 -8 4z"/>
<path d="M3411 184 c0 -11 3 -14 6 -6 3 7 2 16 -1 19 -3 4 -6 -2 -5 -13z"/>
<path d="M246 173 c-6 -14 -5 -15 5 -6 7 7 10 15 7 18 -3 3 -9 -2 -12 -12z"/>
<path d="M30 171 c0 -5 5 -13 10 -16 6 -3 10 -2 10 4 0 5 -4 13 -10 16 -5 3
-10 2 -10 -4z"/>
<path d="M320 169 c0 -5 5 -7 10 -4 6 3 10 8 10 11 0 2 -4 4 -10 4 -5 0 -10
-5 -10 -11z"/>
<path d="M378 173 c7 -3 16 -2 19 1 4 3 -2 6 -13 5 -11 0 -14 -3 -6 -6z"/>
<path d="M3730 169 c0 -5 5 -7 10 -4 6 3 10 8 10 11 0 2 -4 4 -10 4 -5 0 -10
-5 -10 -11z"/>
<path d="M3788 173 c7 -3 16 -2 19 1 4 3 -2 6 -13 5 -11 0 -14 -3 -6 -6z"/>
<path d="M3845 170 c3 -5 8 -10 11 -10 2 0 4 5 4 10 0 6 -5 10 -11 10 -5 0 -7
-4 -4 -10z"/>
<path d="M210 160 c0 -5 5 -10 11 -10 5 0 7 5 4 10 -3 6 -8 10 -11 10 -2 0 -4
-4 -4 -10z"/>
<path d="M3270 160 c-9 -6 -10 -10 -3 -10 6 0 15 5 18 10 8 12 4 12 -15 0z"/>
<path d="M3620 160 c0 -6 7 -10 15 -10 8 0 15 2 15 4 0 2 -7 6 -15 10 -8 3
-15 1 -15 -4z"/>
<path d="M98 153 c7 -3 16 -2 19 1 4 3 -2 6 -13 5 -11 0 -14 -3 -6 -6z"/>
<path d="M3650 135 c-8 -9 -8 -15 -2 -15 12 0 26 19 19 26 -2 2 -10 -2 -17
-11z"/>
<path d="M118 133 c7 -3 16 -2 19 1 4 3 -2 6 -13 5 -11 0 -14 -3 -6 -6z"/>
<path d="M200 133 c8 -3 19 -11 23 -17 6 -7 7 -6 4 4 -2 8 -12 16 -23 17 -13
2 -15 1 -4 -4z"/>
<path d="M240 129 c0 -5 5 -7 10 -4 6 3 10 8 10 11 0 2 -4 4 -10 4 -5 0 -10
-5 -10 -11z"/>
<path d="M328 133 c7 -3 16 -2 19 1 4 3 -2 6 -13 5 -11 0 -14 -3 -6 -6z"/>
<path d="M3418 133 c7 -3 16 -2 19 1 4 3 -2 6 -13 5 -11 0 -14 -3 -6 -6z"/>
<path d="M3605 130 c3 -5 11 -10 16 -10 6 0 7 5 4 10 -3 6 -11 10 -16 10 -6 0
-7 -4 -4 -10z"/>
</g>
</svg>
